<svg width="1720" height="88" viewBox="0 0 1720 88" fill="none" xmlns="http://www.w3.org/2000/svg">
<rect width="1720" height="88" fill="url(#paint0_linear_360_11228)"/>
<g clip-path="url(#clip0_360_11228)">
<path d="M91.7203 53.9861C91.5536 53.8183 91.4424 53.4826 91.4424 53.0351V31.6644C91.4424 30.9931 91.9982 30.7134 93.1655 30.7134H94.2216C94.833 30.7134 95.2777 30.7693 95.5 30.9372C95.7779 31.105 95.8891 31.3288 95.8891 31.6644V50.5176H101.559C101.892 50.5176 102.114 50.6295 102.226 50.8532C102.337 51.077 102.448 51.4686 102.448 51.9162V52.8113C102.448 53.3148 102.392 53.6504 102.226 53.9302C102.114 54.1539 101.892 54.2658 101.559 54.2658H92.5541C92.165 54.2658 91.8871 54.1539 91.7203 53.9861Z" fill="white"/>
<path d="M105.561 52.1399C104.449 50.5735 103.838 48.3917 103.838 45.4826C103.838 42.5735 104.394 40.3357 105.505 38.7693C106.617 37.2029 108.285 36.4756 110.508 36.4756C112.731 36.4756 114.343 37.2588 115.51 38.7693C116.622 40.3357 117.178 42.5735 117.178 45.4826C117.178 48.3917 116.622 50.6294 115.455 52.1959C114.343 53.7064 112.676 54.4896 110.508 54.4896C108.34 54.4896 106.728 53.7064 105.561 52.1399ZM112.342 49.7903C112.731 48.8952 112.898 47.4966 112.898 45.4826C112.898 43.4686 112.731 42.014 112.342 41.1749C111.953 40.3357 111.342 39.8882 110.508 39.8882C109.674 39.8882 109.063 40.3357 108.674 41.1749C108.285 42.014 108.118 43.4686 108.118 45.4826C108.118 47.4966 108.285 48.9511 108.674 49.7903C109.063 50.6854 109.674 51.077 110.508 51.077C111.397 51.077 112.009 50.6294 112.342 49.7903Z" fill="white"/>
<path d="M120.958 60.2515C119.902 59.5243 119.401 58.4054 119.401 56.9508C119.401 56.0557 119.624 55.2166 120.068 54.5452C120.513 53.8739 121.18 53.3145 121.958 52.9229V52.811C121.514 52.5312 121.236 52.1956 121.013 51.748C120.791 51.3005 120.68 50.797 120.68 50.2935C120.68 49.0068 121.236 47.9998 122.292 47.2166C120.68 46.3215 119.846 44.6991 119.846 42.4054C119.846 40.5033 120.346 39.0487 121.402 38.0417C122.458 37.0347 123.904 36.5312 125.682 36.5312C126.405 36.5312 127.072 36.5872 127.628 36.755H132.186C132.464 36.755 132.686 36.8669 132.797 37.0907C132.908 37.3145 132.964 37.6501 132.964 38.0977V38.6012C132.964 39.0487 132.908 39.3844 132.797 39.5522C132.686 39.776 132.519 39.8319 132.241 39.8319C131.63 39.8319 131.185 39.776 130.852 39.7201L130.796 39.8319C131.241 40.5592 131.463 41.4543 131.463 42.4613C131.463 44.1396 130.963 45.4823 130.018 46.4333C129.073 47.3844 127.739 47.8879 126.127 47.9438C124.849 47.9998 124.182 48.5592 124.182 49.5103C124.182 50.0697 124.404 50.5173 124.904 50.6851C125.349 50.9089 126.127 51.0767 127.127 51.3005C127.35 51.3005 127.683 51.3564 128.128 51.4683C129.462 51.748 130.463 52.1956 131.241 52.9229C132.019 53.5942 132.408 54.6571 132.408 55.9998C132.408 57.6781 131.797 59.0208 130.629 59.9718C129.406 60.9229 127.739 61.3704 125.571 61.3704C123.57 61.3704 122.014 60.9788 120.958 60.2515ZM128.128 57.734C128.628 57.3984 128.851 56.8949 128.851 56.2795C128.851 55.6082 128.573 55.1047 128.072 54.8809C127.572 54.6571 126.738 54.4333 125.627 54.2655C125.015 54.1536 124.571 54.0977 124.348 54.0417C123.904 54.2655 123.57 54.6012 123.348 54.9928C123.125 55.3844 122.959 55.8319 122.959 56.3354C122.959 57.0068 123.237 57.4543 123.737 57.79C124.237 58.1257 124.96 58.2935 125.905 58.2935C126.961 58.2935 127.683 58.1257 128.128 57.734ZM127.35 44.4194C127.739 44.0278 127.961 43.3005 127.961 42.2935C127.961 41.1746 127.739 40.4473 127.35 39.9998C126.961 39.6082 126.405 39.3844 125.682 39.3844C125.015 39.3844 124.459 39.6082 124.07 39.9998C123.681 40.3914 123.515 41.1746 123.515 42.2935C123.515 44.1396 124.237 45.0347 125.738 45.0347C126.349 45.0347 126.905 44.811 127.35 44.4194Z" fill="white"/>
<path d="M135.854 52.1399C134.742 50.5735 134.131 48.3917 134.131 45.4826C134.131 42.5735 134.687 40.3357 135.798 38.7693C136.91 37.2029 138.578 36.4756 140.801 36.4756C143.024 36.4756 144.636 37.2588 145.803 38.7693C146.915 40.3357 147.471 42.5735 147.471 45.4826C147.471 48.3917 146.915 50.6294 145.748 52.1959C144.636 53.7064 142.969 54.4896 140.801 54.4896C138.633 54.4896 136.966 53.7064 135.854 52.1399ZM142.635 49.7903C143.024 48.8952 143.191 47.4966 143.191 45.4826C143.191 43.4686 143.024 42.014 142.635 41.1749C142.246 40.3357 141.635 39.8882 140.801 39.8882C139.967 39.8882 139.356 40.3357 138.967 41.1749C138.578 42.014 138.411 43.4686 138.411 45.4826C138.411 47.4966 138.578 48.9511 138.967 49.7903C139.356 50.6854 139.967 51.077 140.801 51.077C141.69 51.077 142.246 50.6294 142.635 49.7903Z" fill="white"/>
<path d="M156.142 51.5802C154.753 49.6221 154.03 46.6011 154.03 42.4613C154.03 38.4333 154.753 35.4123 156.254 33.4543C157.699 31.4963 159.978 30.4893 162.979 30.4893C164.202 30.4893 165.203 30.6571 166.036 30.9368C166.37 31.0487 166.592 31.2165 166.759 31.4403C166.87 31.6641 166.926 31.9438 166.926 32.3354C166.926 33.0067 166.815 33.6221 166.537 34.2375C166.259 34.8529 165.925 35.0207 165.536 34.8529C164.758 34.5172 163.98 34.4053 163.146 34.4053C161.59 34.4053 160.478 35.0767 159.755 36.4193C159.033 37.762 158.644 39.776 158.644 42.5172C158.644 45.2585 159.033 47.3284 159.755 48.6711C160.478 50.0137 161.701 50.6851 163.257 50.6851C163.757 50.6851 164.147 50.6291 164.536 50.5732C164.925 50.4613 165.314 50.3494 165.758 50.1816C165.87 50.1256 165.981 50.1256 166.036 50.1256C166.425 50.1256 166.703 50.4053 166.926 50.9088C167.148 51.4123 167.204 52.0277 167.204 52.755C167.204 53.0907 167.148 53.3144 167.037 53.5382C166.926 53.762 166.648 53.9298 166.314 54.0417C165.925 54.2095 165.425 54.3214 164.814 54.4333C164.202 54.5452 163.535 54.6011 162.868 54.6011C159.811 54.4893 157.532 53.5382 156.142 51.5802Z" fill="white"/>
<path d="M170.26 53.0907C169.426 52.1396 169.037 50.9089 169.037 49.2305C169.037 47.3285 169.704 45.818 171.038 44.6991C172.372 43.5802 174.429 43.0208 177.208 43.0208V42.1257C177.208 40.6152 176.43 39.8319 174.873 39.8319C174.262 39.8319 173.762 39.8879 173.317 40.0557C172.872 40.2236 172.372 40.3914 171.872 40.6711C171.594 40.8389 171.372 40.9508 171.26 40.9508C170.983 40.9508 170.649 40.6711 170.26 39.9998C169.871 39.3844 169.704 38.9368 169.704 38.6012C169.704 38.2655 169.982 37.9299 170.482 37.5942C170.983 37.2585 171.705 37.0347 172.539 36.811C173.373 36.5872 174.262 36.5312 175.151 36.5312C177.263 36.5312 178.875 37.0347 179.876 37.9858C180.876 38.9928 181.432 40.3354 181.432 42.0697V48.7271C181.432 50.2375 181.488 51.3564 181.655 52.0837C181.766 52.811 181.877 53.2026 181.877 53.3704C181.877 53.7061 181.488 53.9299 180.765 54.0977C180.043 54.2655 179.376 54.3774 178.82 54.3774C178.486 54.3774 178.264 54.2096 178.097 53.9299C177.93 53.6501 177.764 53.2026 177.653 52.5312C177.263 53.0907 176.763 53.5942 176.096 53.9858C175.429 54.3774 174.707 54.5452 173.817 54.5452C172.261 54.4893 171.094 54.0417 170.26 53.0907ZM176.207 50.8529C176.596 50.6292 176.93 50.2935 177.208 49.8459V45.762C174.373 45.762 172.928 46.825 172.928 48.9508C172.928 49.6781 173.095 50.2375 173.428 50.6292C173.762 51.0208 174.206 51.2445 174.873 51.2445C175.374 51.2445 175.818 51.0767 176.207 50.8529Z" fill="white"/>
<path d="M185.491 53.3145V42.2376C185.491 40.7271 185.435 39.6642 185.268 38.9369C185.157 38.2656 185.046 37.818 185.046 37.6502C185.046 37.3145 185.435 37.0908 186.158 36.9229C186.88 36.7551 187.547 36.6992 188.103 36.6992C188.436 36.6992 188.714 36.867 188.881 37.1467C189.048 37.4824 189.159 37.818 189.215 38.1537C189.27 38.5453 189.326 38.7691 189.381 38.9369C189.77 38.1537 190.215 37.5383 190.66 37.0908C191.16 36.6432 191.716 36.4194 192.439 36.4194C193.05 36.4194 193.439 36.5313 193.717 36.811C193.939 37.0908 194.106 37.4824 194.106 38.0418C194.106 38.4894 194.05 39.0488 193.884 39.6642C193.717 40.3355 193.55 40.6152 193.328 40.6152C193.217 40.6152 192.939 40.5593 192.661 40.4474C192.327 40.3355 192.049 40.2796 191.772 40.2796C191.327 40.2796 190.882 40.4474 190.493 40.839C190.104 41.2306 189.882 41.6222 189.715 42.0698V53.2027C189.715 53.874 189.104 54.1537 187.936 54.1537H187.269C186.102 54.3215 185.491 53.9859 185.491 53.3145Z" fill="white"/>
<path d="M196.607 52.1399C195.495 50.5735 194.884 48.3917 194.884 45.4826C194.884 42.5735 195.44 40.3357 196.551 38.7693C197.663 37.2029 199.33 36.4756 201.554 36.4756C203.777 36.4756 205.445 37.2588 206.556 38.7693C207.668 40.3357 208.224 42.5735 208.224 45.4826C208.224 48.3917 207.668 50.6294 206.501 52.1959C205.389 53.7064 203.722 54.4896 201.554 54.4896C199.386 54.4896 197.719 53.7064 196.607 52.1399ZM203.388 49.7903C203.777 48.8952 203.944 47.4966 203.944 45.4826C203.944 43.4686 203.777 42.014 203.388 41.1749C202.999 40.3357 202.388 39.8882 201.554 39.8882C200.72 39.8882 200.109 40.3357 199.72 41.1749C199.33 42.014 199.164 43.4686 199.164 45.4826C199.164 47.4966 199.33 48.9511 199.72 49.7903C200.109 50.6854 200.72 51.077 201.554 51.077C202.388 51.077 202.999 50.6294 203.388 49.7903Z" fill="white"/>
<path d="M212.003 53.3149C211.336 52.4757 210.947 51.3568 210.947 49.7904V37.5946C210.947 36.9233 211.503 36.6436 212.67 36.6436H213.504C214.116 36.6436 214.56 36.6995 214.783 36.8673C215.06 37.0352 215.172 37.2589 215.172 37.5946V48.8953C215.172 49.5666 215.283 50.1261 215.561 50.4617C215.839 50.7974 216.228 50.9652 216.784 50.9652C217.228 50.9652 217.617 50.8533 218.006 50.5177C218.395 50.238 218.673 49.9023 218.951 49.3988V37.5946C218.951 36.9233 219.507 36.6436 220.674 36.6436H221.564C222.675 36.6436 223.231 36.9792 223.231 37.5946V48.7275C223.231 50.238 223.287 51.3568 223.398 52.0282C223.509 52.6995 223.565 53.1471 223.565 53.2589C223.565 53.5946 223.176 53.8743 222.453 54.0422C221.675 54.21 221.008 54.2659 220.396 54.2659C220.007 54.2659 219.785 54.154 219.618 53.8743C219.507 53.5946 219.396 53.3149 219.34 52.9233C219.285 52.5317 219.229 52.2519 219.174 52.0282C218.673 52.7554 218.062 53.3708 217.395 53.8184C216.672 54.2659 215.894 54.5457 215.005 54.5457C213.671 54.4897 212.67 54.0981 212.003 53.3149Z" fill="white"/>
<path d="M227.178 53.8739C226.177 53.4264 225.732 52.9229 225.732 52.3634C225.732 51.9718 225.899 51.4683 226.288 50.8529C226.677 50.2375 227.011 49.9578 227.289 49.9578C227.344 49.9578 227.567 50.0697 227.845 50.2935C228.178 50.5173 228.456 50.6851 228.79 50.8529C229.123 51.0208 229.512 51.0767 229.901 51.0767C230.513 51.0767 231.013 50.9089 231.346 50.6292C231.68 50.3494 231.847 49.9019 231.847 49.3984C231.847 48.783 231.624 48.3354 231.235 47.9998C230.846 47.6641 230.179 47.2166 229.179 46.7131C228.123 46.1536 227.344 45.4823 226.733 44.755C226.177 44.0278 225.844 43.0208 225.844 41.734C225.844 40.1676 226.344 38.8809 227.289 37.9299C228.289 36.9788 229.568 36.5312 231.124 36.5312C232.125 36.5312 233.014 36.6991 233.903 36.9788C234.793 37.3145 235.237 37.7061 235.237 38.2655C235.237 38.6571 235.07 39.1606 234.793 39.776C234.515 40.3914 234.237 40.6711 234.014 40.6711C233.959 40.6711 233.681 40.5592 233.236 40.3354C232.792 40.1117 232.291 39.9998 231.735 39.9998C231.18 39.9998 230.735 40.1117 230.401 40.3914C230.068 40.6152 229.901 41.0068 229.901 41.5103C229.901 42.0138 230.068 42.4054 230.401 42.741C230.735 43.0767 231.235 43.4124 231.958 43.804L232.569 44.1956C233.57 44.755 234.403 45.4264 234.959 46.2096C235.515 46.9928 235.793 47.9998 235.793 49.2865C235.793 50.9089 235.293 52.2515 234.292 53.2585C233.292 54.2655 231.902 54.769 230.235 54.769C229.179 54.4893 228.123 54.3215 227.178 53.8739Z" fill="white"/>
<path d="M239.407 52.2518C238.239 50.7413 237.628 48.5595 237.628 45.5945C237.628 39.4966 239.907 36.4756 244.409 36.4756C248.467 36.4756 250.468 39.4406 250.468 45.4266C250.468 45.6504 250.245 46.042 249.912 46.4896C249.523 46.9371 249.189 47.2168 248.967 47.2168H241.963C242.019 48.6154 242.297 49.6224 242.853 50.2378C243.353 50.8532 244.131 51.1329 245.076 51.1329C245.632 51.1329 246.188 51.077 246.632 50.9092C247.077 50.7413 247.466 50.5735 247.855 50.3497C248.244 50.1259 248.467 50.014 248.522 50.014C248.8 50.014 249.134 50.2938 249.523 50.9092C249.912 51.5245 250.079 51.9721 250.079 52.2518C250.079 52.6994 249.801 53.091 249.245 53.4266C248.689 53.7623 248.022 54.042 247.188 54.2658C246.355 54.4896 245.632 54.5455 244.965 54.5455C242.464 54.4896 240.629 53.7623 239.407 52.2518ZM246.521 44.3637C246.521 42.7413 246.355 41.5106 246.021 40.7833C245.688 40.0001 245.132 39.6644 244.354 39.6644C243.575 39.6644 242.964 40.056 242.575 40.7833C242.186 41.5106 241.908 42.7413 241.852 44.4196H246.521V44.3637Z" fill="white"/>
<path d="M254.192 53.3147C253.469 52.5315 253.08 51.3566 253.08 49.7342V29.9301C253.08 29.3147 253.692 28.979 254.859 28.979H255.526C256.693 28.979 257.304 29.3147 257.304 29.9301V49.7342C257.304 50.2377 257.36 50.5734 257.527 50.7972C257.694 51.021 257.916 51.1328 258.249 51.1328C258.416 51.1328 258.583 51.1329 258.75 51.0769C258.916 51.021 259.028 51.021 259.139 51.021C259.361 51.021 259.583 51.3007 259.75 51.8042C259.917 52.3077 260.028 52.8112 260.028 53.1468C260.028 53.5944 259.75 53.986 259.139 54.2098C258.527 54.4335 257.916 54.5454 257.193 54.5454C255.915 54.4895 254.914 54.0979 254.192 53.3147Z" fill="white"/>
<path d="M72.767 24H46.9206C43.0853 24 39.9727 27.1329 39.9727 30.993V57.007C39.9727 60.8671 43.0853 64 46.9206 64H72.767C76.6023 64 79.715 60.8671 79.715 57.007V30.993C79.715 27.1329 76.6023 24 72.767 24ZM51.3673 51.4126C51.3673 52.3077 50.6447 53.035 49.7554 53.035H46.865C45.9757 53.035 45.2531 52.3077 45.2531 51.4126V36.5874C45.2531 35.6923 45.9757 34.965 46.865 34.965H49.7554C50.6447 34.965 51.3673 35.6923 51.3673 36.5874V51.4126ZM66.764 54.2098C66.764 55.1049 66.0414 55.8322 65.152 55.8322H54.5356C53.6462 55.8322 52.9236 55.1049 52.9236 54.2098V33.7902C52.9236 32.8951 53.6462 32.1678 54.5356 32.1678H65.2076C66.097 32.1678 66.8195 32.8951 66.8195 33.7902V54.2098H66.764ZM74.4345 51.4126C74.4345 52.3077 73.7119 53.035 72.8226 53.035H69.9322C69.0429 53.035 68.3203 52.3077 68.3203 51.4126V36.5874C68.3203 35.6923 69.0429 34.965 69.9322 34.965H72.8226C73.7119 34.965 74.4345 35.6923 74.4345 36.5874V51.4126Z" fill="url(#paint1_linear_360_11228)"/>
</g>
<g filter="url(#filter0_d_360_11228)">
<path d="M586.332 65.0749C585.831 66.5778 584.425 67.5916 582.841 67.5916H558.345L519.271 67.8512L528.71 57.8003L540.448 45.4014H558.345H582.841C584.425 45.4014 585.831 46.4152 586.332 47.9181L588.802 55.3332C589.054 56.0883 589.054 56.9047 588.802 57.6598L586.332 65.0749Z" fill="#8D55FF"/>
</g>
<path d="M522.211 64.6697L538.309 47.7007H581.496C583.078 47.7007 584.483 48.7119 584.986 50.2121L586.595 55.0166C586.849 55.775 586.849 56.5954 586.595 57.3538L584.986 62.1583C584.483 63.6585 583.078 64.6697 581.496 64.6697H522.211Z" fill="url(#paint2_radial_360_11228)"/>
<path d="M543.234 60.047H539.502V51.8489H543.234C545.779 51.8489 547.382 53.4151 547.382 55.948C547.382 58.4808 545.779 60.047 543.234 60.047ZM543.234 53.0358H540.811V58.8601H543.234C545.13 58.8601 545.987 58.0525 545.987 55.948C545.987 53.8434 545.13 53.0358 543.234 53.0358Z" fill="white"/>
<path d="M554.925 60.047H548.366V51.8489H554.925V53.0358H549.688V55.3362H554.741V56.5108H549.688V58.8601H554.925V60.047Z" fill="white"/>
<path d="M556.811 60.047H555.342L559.001 51.8489H560.861L564.519 60.047H563.027L562.084 57.9179H557.753L556.811 60.047ZM559.392 54.2349L558.279 56.7311H561.558L560.445 54.2349L559.968 53.0725H559.87L559.392 54.2349Z" fill="white"/>
<path d="M571.506 60.047H565.131V51.8489H566.453V58.8601H571.506V60.047Z" fill="white"/>
<path d="M575.799 60.1693C573.351 60.1693 572.103 59.0926 572.103 57.3673V57.2939H573.425V57.4897C573.425 58.4686 574 58.958 575.799 58.958C577.365 58.958 577.915 58.6154 577.915 57.8445C577.915 57.1348 577.499 56.8657 576.459 56.6699L574.453 56.3395C573.07 56.0948 572.091 55.4585 572.091 54.1126C572.091 52.9257 573.07 51.7266 575.615 51.7266C578.013 51.7266 579.102 52.9257 579.102 54.5286V54.602H577.793V54.4429C577.793 53.4396 577.194 52.9379 575.493 52.9379C574 52.9379 573.413 53.305 573.413 54.0392C573.413 54.7488 573.829 54.9813 574.795 55.1893L576.79 55.5319C578.429 55.8256 579.237 56.572 579.237 57.7711C579.237 59.0192 578.221 60.1693 575.799 60.1693Z" fill="white"/>
<g clip-path="url(#clip1_360_11228)">
<path opacity="0.5" d="M560.342 28.3419C561.737 29.7129 550.232 43.6869 534.638 59.5426C528.992 65.282 523.592 70.4801 518.926 74.7129L514.042 74.8526L514.001 73.4362L550.361 34.9236C555.886 30.2212 559.646 27.6579 560.342 28.3419Z" fill="url(#paint3_radial_360_11228)"/>
</g>
<path d="M329.432 64.8167C324.214 64.8167 320.753 61.4054 320.753 56.163C320.753 50.9206 324.214 47.5093 329.432 47.5093C334.172 47.5093 337.483 50.0176 337.483 54.0309V54.3821H334.499V54.0309C334.499 51.4724 332.868 50.0928 329.457 50.0928C325.519 50.0928 323.612 51.9741 323.612 56.163C323.612 60.3519 325.519 62.208 329.457 62.208C332.868 62.208 334.499 60.8535 334.499 58.27V57.9439H337.483V58.27C337.483 62.3083 334.198 64.8167 329.432 64.8167Z" fill="#FF39F8"/>
<path d="M348.108 64.5658H345.424V58.7716L338.049 47.7601H341.36L345.323 53.7299L346.728 55.862H346.929L348.308 53.7299L352.246 47.7601H355.582L348.108 58.8218V64.5658Z" fill="#FF39F8"/>
<path d="M366.258 64.5658H356.5V47.7601H365.907C369.117 47.7601 371.049 49.24 371.049 51.8988C371.049 53.8804 369.945 55.3603 367.386 55.6613V55.8369C370.246 56.163 371.651 57.7181 371.651 59.9254C371.651 62.81 369.719 64.5658 366.258 64.5658ZM359.184 50.1932V54.8085H365.53C367.412 54.8085 368.365 54.0811 368.365 52.5008C368.365 50.9206 367.487 50.1932 365.606 50.1932H359.184ZM359.184 57.0409V62.1328H365.957C367.963 62.1328 368.942 61.3803 368.942 59.5492C368.942 57.7934 367.938 57.0409 365.957 57.0409H359.184Z" fill="#FF39F8"/>
<path d="M386.85 64.5658H373.405V47.7601H386.85V50.1932H376.114V54.9088H386.473V57.3168H376.114V62.1328H386.85V64.5658Z" fill="#FF39F8"/>
<path d="M391.669 64.5658H388.96V47.7601H397.688C401.501 47.7601 403.859 49.5661 403.859 52.7015C403.859 55.4857 402.028 57.1914 398.867 57.367V57.5425C400.172 57.8937 400.774 58.6462 401.376 59.6997L404.185 64.5658H401.075L398.391 59.9254C397.638 58.596 396.861 58.0442 394.754 58.0442H391.669V64.5658ZM391.669 50.1932V55.9623H397.663C399.921 55.9623 401.05 55.1847 401.05 53.0777C401.05 51.0209 399.921 50.1932 397.663 50.1932H391.669Z" fill="#FF39F8"/>
<path d="M412.808 64.5658H410.099V47.7601H413.786L418.627 57.4924L420.157 60.9789H420.358L421.838 57.4924L426.629 47.7601H430.316V64.5658H427.607V54.2566L427.707 51.8236H427.507L426.478 54.2566L421.838 63.5625H418.577L413.937 54.2566L412.908 51.8236H412.708L412.808 54.2566V64.5658Z" fill="#FF39F8"/>
<path d="M441.083 64.8167C435.815 64.8167 432.329 61.4054 432.329 56.163C432.329 50.9206 435.815 47.5093 441.083 47.5093C446.401 47.5093 449.862 50.9206 449.862 56.163C449.862 61.4054 446.401 64.8167 441.083 64.8167ZM441.083 62.208C445.071 62.208 447.003 60.3519 447.003 56.163C447.003 51.9741 445.071 50.0928 441.083 50.0928C437.095 50.0928 435.188 51.9741 435.188 56.163C435.188 60.3519 437.095 62.208 441.083 62.208Z" fill="#FF39F8"/>
<path d="M454.572 64.5658H451.863V47.7601H454.773L462.298 57.5927L464.48 60.7281H464.681L464.556 57.693V47.7601H467.264V64.5658H464.355L456.78 54.7583L454.673 51.7985H454.472L454.572 54.7081V64.5658Z" fill="#FF39F8"/>
<path d="M477.57 64.5658H469.92V47.7601H477.57C482.788 47.7601 486.074 50.9708 486.074 56.163C486.074 61.3552 482.788 64.5658 477.57 64.5658ZM477.57 50.1932H472.604V62.1328H477.57C481.458 62.1328 483.214 60.4773 483.214 56.163C483.214 51.8487 481.458 50.1932 477.57 50.1932Z" fill="#FF39F8"/>
<path d="M489.848 64.5658H486.838L494.338 47.7601H498.15L505.65 64.5658H502.59L500.659 60.2014H491.779L489.848 64.5658ZM495.14 52.6513L492.858 57.7683H499.58L497.297 52.6513L496.319 50.2684H496.119L495.14 52.6513Z" fill="#FF39F8"/>
<path d="M515.533 64.5658H512.849V58.7716L505.475 47.7601H508.786L512.749 53.7299L514.153 55.862H514.354L515.734 53.7299L519.672 47.7601H523.008L515.533 58.8218V64.5658Z" fill="#FF39F8"/>
<rect x="322.185" y="18.7451" width="67.5246" height="19.8047" rx="9.90236" fill="url(#paint4_radial_360_11228)"/>
<rect x="322.185" y="18.7451" width="67.5246" height="19.8047" rx="9.90236" stroke="#8D55FF" stroke-width="2.62198"/>
<path d="M335.248 32.7467H330.488V24.5486H335.077C336.643 24.5486 337.585 25.2705 337.585 26.5676C337.585 27.5342 337.047 28.2561 335.799 28.4029V28.4886C337.194 28.6477 337.879 29.4063 337.879 30.4831C337.879 31.8902 336.937 32.7467 335.248 32.7467ZM331.798 25.7355V27.9869H334.893C335.811 27.9869 336.276 27.6321 336.276 26.8612C336.276 26.0904 335.848 25.7355 334.93 25.7355H331.798ZM331.798 29.0759V31.5598H335.101C336.08 31.5598 336.557 31.1927 336.557 30.2995C336.557 29.443 336.068 29.0759 335.101 29.0759H331.798Z" fill="white"/>
<path d="M340.056 32.7467H338.735V24.5486H340.056V32.7467Z" fill="white"/>
<path d="M345.048 32.8691C342.638 32.8691 341.035 31.205 341.035 28.6477C341.035 26.0904 342.76 24.4263 345.379 24.4263C347.704 24.4263 349.319 25.6009 349.319 27.4975V27.5954H347.863V27.4975C347.863 26.3228 347.043 25.6866 345.342 25.6866C343.372 25.6866 342.43 26.6043 342.43 28.6477C342.43 30.6911 343.36 31.5965 345.281 31.5965C347.239 31.5965 348.01 31.0581 348.01 29.6755V29.5654H344.975V28.562H349.319V32.7467H348.12V30.9725H348.034C347.691 32.1716 346.651 32.8691 345.048 32.8691Z" fill="white"/>
<path d="M354.202 32.8691C351.791 32.8691 350.188 31.205 350.188 28.6477C350.188 26.0904 351.913 24.4263 354.532 24.4263C356.857 24.4263 358.472 25.6009 358.472 27.4975V27.5954H357.016V27.4975C357.016 26.3228 356.196 25.6866 354.495 25.6866C352.525 25.6866 351.583 26.6043 351.583 28.6477C351.583 30.6911 352.513 31.5965 354.434 31.5965C356.392 31.5965 357.163 31.0581 357.163 29.6755V29.5654H354.128V28.562H358.472V32.7467H357.273V30.9725H357.187C356.844 32.1716 355.804 32.8691 354.202 32.8691Z" fill="white"/>
<path d="M366.144 32.7467H359.586V24.5486H366.144V25.7355H360.907V28.0359H365.961V29.2105H360.907V31.5598H366.144V32.7467Z" fill="white"/>
<path d="M370.612 32.8691C368.165 32.8691 366.917 31.7923 366.917 30.067V29.9936H368.238V30.1894C368.238 31.1683 368.813 31.6577 370.612 31.6577C372.178 31.6577 372.729 31.3151 372.729 30.5442C372.729 29.8345 372.313 29.5654 371.273 29.3696L369.266 29.0392C367.883 28.7945 366.904 28.1582 366.904 26.8123C366.904 25.6254 367.883 24.4263 370.428 24.4263C372.827 24.4263 373.916 25.6254 373.916 27.2283V27.3017H372.606V27.1426C372.606 26.1393 372.007 25.6376 370.306 25.6376C368.813 25.6376 368.226 26.0047 368.226 26.7389C368.226 27.4485 368.642 27.681 369.609 27.889L371.603 28.2316C373.243 28.5253 374.05 29.2717 374.05 30.4708C374.05 31.7189 373.035 32.8691 370.612 32.8691Z" fill="white"/>
<path d="M379.063 32.7467H377.754V25.7355H374.523V24.5486H382.281V25.7355H379.063V32.7467Z" fill="white"/>
<path d="M408.877 37.27H398.659V19.4481H408.509C411.872 19.4481 413.894 21.0175 413.894 23.8371C413.894 25.9385 412.738 27.5079 410.059 27.8271V28.0133C413.054 28.3591 414.525 30.0083 414.525 32.349C414.525 35.408 412.502 37.27 408.877 37.27ZM401.47 22.0283V26.9227H408.115C410.085 26.9227 411.084 26.1513 411.084 24.4755C411.084 22.7997 410.164 22.0283 408.194 22.0283H401.47ZM401.47 29.2901V34.6898H408.562C410.663 34.6898 411.688 33.8918 411.688 31.95C411.688 30.0881 410.637 29.2901 408.562 29.2901H401.47Z" fill="#00D9FF"/>
<path d="M430.047 37.27H416.362V19.4481H419.199V34.6898H430.047V37.27Z" fill="#00D9FF"/>
<path d="M433.72 37.27H430.568L438.422 19.4481H442.414L450.268 37.27H447.064L445.041 32.6416H435.743L433.72 37.27ZM439.262 24.6351L436.872 30.0615H443.912L441.521 24.6351L440.497 22.1081H440.287L439.262 24.6351Z" fill="#00D9FF"/>
<path d="M460.145 37.536C454.681 37.536 451.056 33.9184 451.056 28.3591C451.056 22.7997 454.681 19.1821 460.145 19.1821C465.109 19.1821 468.577 21.8421 468.577 26.0981V26.4705H465.451V26.0981C465.451 23.3849 463.744 21.9219 460.171 21.9219C456.047 21.9219 454.051 23.9169 454.051 28.3591C454.051 32.8012 456.047 34.7696 460.171 34.7696C463.744 34.7696 465.451 33.3332 465.451 30.5935V30.2477H468.577V30.5935C468.577 34.876 465.136 37.536 460.145 37.536Z" fill="#00D9FF"/>
<path d="M473.504 37.27H470.667V19.4481H473.504V27.0557H478.836L483.984 19.4481H487.346L481.2 28.2527L487.32 37.27H483.958L478.888 29.8221H473.504V37.27Z" fill="#00D9FF"/>
<path d="M496.18 37.27H493.343V19.4481H507.343V22.0283H496.18V27.5611H506.949V30.1147H496.18V37.27Z" fill="#00D9FF"/>
<path d="M512.289 37.27H509.452V19.4481H518.593C522.586 19.4481 525.055 21.3633 525.055 24.6883C525.055 27.6409 523.137 29.4497 519.828 29.6359V29.8221C521.194 30.1945 521.824 30.9925 522.454 32.1096L525.396 37.27H522.139L519.329 32.349C518.541 30.9393 517.726 30.3541 515.52 30.3541H512.289V37.27ZM512.289 22.0283V28.1463H518.567C520.931 28.1463 522.113 27.3217 522.113 25.0873C522.113 22.9061 520.931 22.0283 518.567 22.0283H512.289Z" fill="#00D9FF"/>
<path d="M529.937 37.27H527.1V19.4481H529.937V37.27Z" fill="#00D9FF"/>
<path d="M540.733 37.27H532.722V19.4481H540.733C546.197 19.4481 549.638 22.8529 549.638 28.3591C549.638 33.8652 546.197 37.27 540.733 37.27ZM540.733 22.0283H535.533V34.6898H540.733C544.805 34.6898 546.644 32.9342 546.644 28.3591C546.644 23.7839 544.805 22.0283 540.733 22.0283Z" fill="#00D9FF"/>
<path d="M553.591 37.27H550.438L558.292 19.4481H562.285L570.139 37.27H566.934L564.912 32.6416H555.613L553.591 37.27ZM559.133 24.6351L556.743 30.0615H563.782L561.392 24.6351L560.368 22.1081H560.157L559.133 24.6351Z" fill="#00D9FF"/>
<path d="M580.488 37.27H577.678V31.1255L569.955 19.4481H573.422L577.573 25.7789L579.044 28.0399H579.254L580.698 25.7789L584.822 19.4481H588.316L580.488 31.1787V37.27Z" fill="#00D9FF"/>
<path d="M759.9 63.5624C746.178 63.5624 740.554 57.5449 740.554 44.2166C740.554 31.1132 747.921 24.7584 759.169 24.7584C769.46 24.7584 776.096 29.7073 776.096 37.4119V37.8618H766.705V37.4119C766.705 34.1501 764.568 32.8566 759.169 32.8566C752.252 32.8566 749.552 35.0499 749.552 42.7544V45.2289H750.171C751.746 42.1921 755.795 39.7176 762.543 39.7176C771.822 39.7176 776.996 43.4855 776.996 51.1901C776.996 58.7259 771.091 63.5624 759.9 63.5624ZM759.45 55.4642C766.142 55.4642 768.167 53.8895 768.167 50.5715C768.167 47.0847 766.199 45.5663 759.506 45.5663C752.42 45.5663 750.227 47.0847 750.227 50.459C750.227 53.8333 752.477 55.4642 759.45 55.4642ZM798.935 63.5624C786.787 63.5624 780.095 55.9141 780.095 44.1604C780.095 32.463 786.787 24.7584 798.935 24.7584C811.026 24.7584 817.774 32.463 817.774 44.1604C817.774 55.9141 811.026 63.5624 798.935 63.5624ZM798.935 55.3517C806.077 55.3517 808.72 52.2586 808.72 44.1604C808.72 36.0622 806.077 32.9691 798.935 32.9691C791.736 32.9691 789.149 36.0622 789.149 44.1604C789.149 52.2586 791.736 55.3517 798.935 55.3517ZM829.851 43.4855C823.609 43.4855 819.953 39.7176 819.953 34.0938C819.953 28.4701 823.609 24.6459 829.851 24.6459C836.15 24.6459 839.805 28.4701 839.805 34.0938C839.805 39.7176 836.15 43.4855 829.851 43.4855ZM830.076 63H821.922L853.921 25.3208H862.075L830.076 63ZM829.851 37.9742C832.832 37.9742 833.788 36.9057 833.788 34.0938C833.788 31.282 832.832 30.1572 829.851 30.1572C826.927 30.1572 825.971 31.282 825.971 34.0938C825.971 36.9057 826.927 37.9742 829.851 37.9742ZM854.09 63.6186C847.847 63.6186 844.136 59.8507 844.136 54.2269C844.136 48.6032 847.847 44.8352 854.09 44.8352C860.332 44.8352 864.044 48.6032 864.044 54.2269C864.044 59.8507 860.332 63.6186 854.09 63.6186ZM854.09 58.1073C857.014 58.1073 858.026 57.0388 858.026 54.2269C858.026 51.415 857.014 50.2903 854.09 50.2903C851.165 50.2903 850.153 51.415 850.153 54.2269C850.153 57.0388 851.165 58.1073 854.09 58.1073ZM895.242 63.5624C882.757 63.5624 874.996 55.9141 874.996 44.1604C874.996 32.4067 882.757 24.7584 895.242 24.7584C908.008 24.7584 915.712 32.4067 915.712 44.1604C915.712 55.9141 908.008 63.5624 895.242 63.5624ZM895.242 55.4642C903.509 55.4642 906.714 52.5398 906.714 44.1604C906.714 35.781 903.509 32.8566 895.242 32.8566C886.975 32.8566 883.938 35.781 883.938 44.1604C883.938 52.5398 886.975 55.4642 895.242 55.4642ZM927.826 63H919.391V25.3208H951.278V32.9129H927.826V41.4047H950.434V48.9406H927.826V63ZM963.305 63H954.869V25.3208H986.756V32.9129H963.305V41.4047H985.912V48.9406H963.305V63Z" fill="white"/>
<rect x="718.595" y="20.2183" width="39.4812" height="15.8807" rx="4.01698" transform="rotate(-15 718.595 20.2183)" fill="white" fill-opacity="0.2"/>
<path d="M730.84 28.3881C730.349 28.5198 729.877 28.5424 729.424 28.4558C728.977 28.3675 728.581 28.1549 728.234 27.8181C727.894 27.4796 727.642 27.0063 727.479 26.3985L726.351 22.1885L727.515 21.8766L728.646 26.0962C728.745 26.4649 728.887 26.7523 729.074 26.9587C729.261 27.165 729.481 27.3002 729.734 27.3641C729.992 27.4199 730.272 27.4071 730.576 27.3256C730.887 27.2424 731.136 27.1132 731.325 26.9379C731.518 26.7544 731.641 26.5274 731.693 26.2569C731.752 25.9847 731.732 25.6643 731.633 25.2957L730.503 21.0761L731.667 20.7642L732.795 24.9741C732.958 25.582 732.973 26.1185 732.841 26.5835C732.71 27.0486 732.466 27.4327 732.111 27.7359C731.755 28.039 731.332 28.2565 730.84 28.3881ZM735.327 29.3485L733.445 22.3255L734.483 22.0474L734.799 22.7217C734.864 22.5517 734.951 22.3862 735.061 22.2253C735.175 22.0561 735.325 21.9049 735.511 21.7719C735.704 21.6371 735.936 21.5333 736.207 21.4606C736.667 21.3375 737.101 21.3424 737.511 21.4752C737.927 21.6062 738.288 21.8389 738.592 22.1732C738.895 22.501 739.112 22.9106 739.244 23.4021C739.375 23.8936 739.39 24.3611 739.287 24.8045C739.188 25.2398 738.991 25.615 738.694 25.9302C738.404 26.2436 738.032 26.461 737.58 26.5823C737.211 26.6811 736.87 26.6998 736.555 26.6385C736.245 26.569 735.972 26.4274 735.734 26.2138L736.491 29.0366L735.327 29.3485ZM737.067 25.6384C737.339 25.5657 737.564 25.436 737.742 25.2495C737.921 25.063 738.038 24.8377 738.092 24.5737C738.152 24.308 738.142 24.0232 738.06 23.7192C737.977 23.4088 737.843 23.1537 737.658 22.9538C737.479 22.7522 737.265 22.6153 737.017 22.5431C736.769 22.471 736.509 22.4713 736.238 22.5441C735.96 22.6186 735.731 22.7491 735.553 22.9356C735.38 23.1204 735.264 23.3456 735.203 23.6114C735.149 23.8754 735.163 24.1593 735.245 24.4633C735.328 24.7737 735.459 25.0297 735.637 25.2313C735.821 25.4247 736.034 25.5616 736.278 25.642C736.526 25.7141 736.789 25.7129 737.067 25.6384ZM745.014 24.4655L743.447 18.6162L741.449 19.1517L741.196 18.2107L746.347 16.8306L746.599 17.7715L744.601 18.3069L746.168 24.1562L745.014 24.4655ZM750.527 23.1132C750.061 23.2379 749.612 23.2439 749.18 23.131C748.752 23.0099 748.381 22.7871 748.065 22.4628C747.754 22.1302 747.532 21.715 747.399 21.217C747.262 20.7061 747.249 20.2313 747.36 19.7926C747.469 19.3474 747.68 18.9687 747.991 18.6566C748.307 18.3362 748.698 18.1136 749.164 17.9888C749.63 17.8641 750.076 17.8623 750.504 17.9834C750.936 18.0963 751.307 18.3158 751.616 18.6419C751.931 18.9662 752.158 19.3838 752.295 19.8947C752.431 20.4056 752.444 20.8804 752.333 21.3191C752.222 21.7579 752.008 22.1374 751.692 22.4578C751.381 22.77 750.992 22.9884 750.527 23.1132ZM750.259 22.1141C750.492 22.0517 750.686 21.9372 750.843 21.7705C751.005 21.6021 751.114 21.3859 751.168 21.1219C751.222 20.8579 751.203 20.5546 751.111 20.2118C751.019 19.8691 750.885 19.6001 750.708 19.405C750.536 19.2016 750.337 19.0678 750.112 19.0033C749.893 18.9372 749.667 18.9353 749.434 18.9977C749.208 19.0583 749.013 19.1728 748.851 19.3412C748.688 19.5096 748.579 19.7258 748.525 19.9898C748.47 20.2473 748.488 20.5475 748.579 20.8902C748.671 21.2329 748.807 21.5051 748.985 21.7067C749.164 21.9084 749.363 22.0422 749.582 22.1084C749.807 22.1728 750.033 22.1747 750.259 22.1141Z" fill="white"/>
<g clip-path="url(#clip2_360_11228)">
<path d="M1132.65 44.3752C1132.66 40.1611 1129.25 36.7356 1125.04 36.7241C1120.82 36.7127 1117.4 40.1197 1117.39 44.3338C1117.38 46.4433 1118.25 48.4611 1119.78 49.9078L1118.19 52.6972L1119.39 53.3887L1120.87 50.7838C1123.38 52.4056 1126.61 52.4056 1129.12 50.7838L1130.6 53.3887L1131.79 52.6972L1130.25 49.9078C1131.78 48.4726 1132.64 46.4709 1132.65 44.3752ZM1127.6 45.5278H1124.6C1124.22 45.5278 1123.91 45.2182 1123.91 44.8363V40.9865C1123.91 40.6045 1124.22 40.2949 1124.6 40.2949C1124.98 40.2949 1125.29 40.6045 1125.29 40.9865V44.1447H1127.6C1127.98 44.1447 1128.29 44.4543 1128.29 44.8363C1128.29 45.2182 1127.98 45.5278 1127.6 45.5278Z" fill="#FCFFFF"/>
<path d="M1121 35.6514C1120.99 35.6469 1120.99 35.6425 1120.98 35.6381C1119.61 34.2694 1117.4 34.269 1116.03 35.6372C1116.03 35.6375 1116.03 35.6378 1116.03 35.6381C1114.66 37.0062 1114.66 39.2248 1116.03 40.5935C1116.03 40.5938 1116.03 40.5941 1116.03 40.5944C1116.3 40.8579 1116.73 40.8579 1116.99 40.5944L1120.98 36.6294C1121.26 36.363 1121.26 35.9252 1121 35.6514Z" fill="#FCFFFF"/>
<path d="M1133.96 35.6393C1133.31 34.9942 1132.43 34.6298 1131.52 34.624C1130.59 34.6212 1129.71 34.9862 1129.05 35.6384C1128.79 35.9073 1128.79 36.3376 1129.05 36.6066L1133.02 40.5946C1133.29 40.8582 1133.72 40.8582 1133.98 40.5946C1135.35 39.2202 1135.34 37.0016 1133.96 35.6393Z" fill="#FCFFFF"/>
</g>
<path d="M1140.7 50.5V37.4091H1143.07V48.5121H1148.84V50.5H1140.7ZM1150.79 50.5V40.6818H1153.11V50.5H1150.79ZM1151.95 39.2884C1151.59 39.2884 1151.27 39.1669 1151.01 38.924C1150.74 38.6768 1150.61 38.3807 1150.61 38.0355C1150.61 37.6861 1150.74 37.3899 1151.01 37.147C1151.27 36.8999 1151.59 36.7763 1151.95 36.7763C1152.33 36.7763 1152.64 36.8999 1152.9 37.147C1153.17 37.3899 1153.3 37.6861 1153.3 38.0355C1153.3 38.3807 1153.17 38.6768 1152.9 38.924C1152.64 39.1669 1152.33 39.2884 1151.95 39.2884ZM1155.48 50.5V40.6818H1157.7V42.3501H1157.81C1158.02 41.7876 1158.35 41.3487 1158.83 41.0334C1159.3 40.7138 1159.87 40.554 1160.52 40.554C1161.19 40.554 1161.75 40.7159 1162.2 41.0398C1162.66 41.3594 1162.99 41.7962 1163.17 42.3501H1163.28C1163.49 41.8047 1163.86 41.37 1164.38 41.0462C1164.9 40.718 1165.51 40.554 1166.22 40.554C1167.13 40.554 1167.86 40.8395 1168.44 41.4105C1169.01 41.9815 1169.29 42.8146 1169.29 43.9098V50.5H1166.97V44.2678C1166.97 43.6584 1166.81 43.2131 1166.49 42.9318C1166.16 42.6463 1165.77 42.5036 1165.3 42.5036C1164.74 42.5036 1164.3 42.6783 1163.99 43.0277C1163.68 43.3729 1163.52 43.8224 1163.52 44.3764V50.5H1161.25V44.1719C1161.25 43.6648 1161.1 43.2599 1160.79 42.9574C1160.49 42.6548 1160.09 42.5036 1159.6 42.5036C1159.27 42.5036 1158.97 42.5888 1158.69 42.7592C1158.42 42.9254 1158.2 43.1619 1158.04 43.4687C1157.88 43.7713 1157.8 44.125 1157.8 44.5298V50.5H1155.48ZM1171.64 50.5V40.6818H1173.95V50.5H1171.64ZM1172.8 39.2884C1172.44 39.2884 1172.12 39.1669 1171.86 38.924C1171.59 38.6768 1171.46 38.3807 1171.46 38.0355C1171.46 37.6861 1171.59 37.3899 1171.86 37.147C1172.12 36.8999 1172.44 36.7763 1172.8 36.7763C1173.17 36.7763 1173.49 36.8999 1173.75 37.147C1174.01 37.3899 1174.14 37.6861 1174.14 38.0355C1174.14 38.3807 1174.01 38.6768 1173.75 38.924C1173.49 39.1669 1173.17 39.2884 1172.8 39.2884ZM1181.24 40.6818V42.4716H1175.59V40.6818H1181.24ZM1176.98 38.3295H1179.3V47.5469C1179.3 47.858 1179.35 48.0966 1179.44 48.2628C1179.54 48.4247 1179.66 48.5355 1179.82 48.5952C1179.98 48.6548 1180.15 48.6847 1180.35 48.6847C1180.49 48.6847 1180.62 48.674 1180.74 48.6527C1180.87 48.6314 1180.96 48.6122 1181.02 48.5952L1181.41 50.4041C1181.29 50.4467 1181.11 50.4936 1180.88 50.5447C1180.66 50.5959 1180.38 50.6257 1180.05 50.6342C1179.47 50.6513 1178.95 50.5639 1178.49 50.3722C1178.02 50.1761 1177.65 49.8736 1177.38 49.4645C1177.11 49.0554 1176.98 48.544 1176.98 47.9304V38.3295ZM1187.41 50.6918C1186.43 50.6918 1185.58 50.4872 1184.86 50.0781C1184.15 49.6648 1183.6 49.081 1183.22 48.3267C1182.83 47.5682 1182.64 46.6754 1182.64 45.6484C1182.64 44.6385 1182.83 43.7521 1183.22 42.9893C1183.61 42.2223 1184.15 41.6257 1184.84 41.1996C1185.54 40.7692 1186.35 40.554 1187.29 40.554C1187.9 40.554 1188.47 40.652 1189 40.848C1189.54 41.0398 1190.02 41.3381 1190.43 41.7429C1190.85 42.1477 1191.18 42.6634 1191.42 43.2898C1191.66 43.9119 1191.78 44.6534 1191.78 45.5142V46.2237H1183.73V44.6641H1189.56C1189.55 44.2209 1189.46 43.8267 1189.27 43.4815C1189.08 43.1321 1188.82 42.8572 1188.49 42.657C1188.15 42.4567 1187.77 42.3565 1187.32 42.3565C1186.85 42.3565 1186.43 42.4716 1186.08 42.7017C1185.72 42.9276 1185.44 43.2259 1185.24 43.5966C1185.04 43.9631 1184.94 44.3658 1184.94 44.8047V46.1662C1184.94 46.7372 1185.04 47.2273 1185.25 47.6364C1185.46 48.0412 1185.75 48.3523 1186.13 48.5696C1186.5 48.7827 1186.94 48.8892 1187.44 48.8892C1187.78 48.8892 1188.08 48.8423 1188.36 48.7486C1188.63 48.6506 1188.87 48.5078 1189.07 48.3203C1189.27 48.1328 1189.42 47.9006 1189.52 47.6236L1191.68 47.8665C1191.55 48.4375 1191.29 48.9361 1190.9 49.3622C1190.52 49.7841 1190.04 50.1122 1189.44 50.3466C1188.85 50.5767 1188.17 50.6918 1187.41 50.6918ZM1197.38 50.6726C1196.61 50.6726 1195.92 50.4744 1195.31 50.0781C1194.7 49.6818 1194.22 49.1065 1193.86 48.3523C1193.51 47.598 1193.33 46.6818 1193.33 45.6037C1193.33 44.5128 1193.51 43.5923 1193.87 42.8423C1194.23 42.0881 1194.72 41.5192 1195.33 41.1357C1195.95 40.7479 1196.63 40.554 1197.38 40.554C1197.96 40.554 1198.43 40.652 1198.8 40.848C1199.17 41.0398 1199.47 41.272 1199.69 41.5447C1199.9 41.8132 1200.07 42.0668 1200.19 42.3054H1200.29V37.4091H1202.61V50.5H1200.33V48.9531H1200.19C1200.07 49.1918 1199.9 49.4453 1199.67 49.7138C1199.45 49.978 1199.15 50.2038 1198.78 50.3913C1198.41 50.5788 1197.94 50.6726 1197.38 50.6726ZM1198.02 48.7741C1198.51 48.7741 1198.93 48.642 1199.28 48.3778C1199.62 48.1094 1199.88 47.7365 1200.06 47.2592C1200.24 46.782 1200.33 46.2259 1200.33 45.5909C1200.33 44.956 1200.24 44.4041 1200.06 43.9354C1199.89 43.4666 1199.63 43.1023 1199.28 42.8423C1198.94 42.5824 1198.52 42.4524 1198.02 42.4524C1197.51 42.4524 1197.08 42.5866 1196.73 42.8551C1196.39 43.1236 1196.13 43.4943 1195.95 43.9673C1195.78 44.4403 1195.69 44.9815 1195.69 45.5909C1195.69 46.2045 1195.78 46.7521 1195.95 47.2337C1196.13 47.7109 1196.39 48.0881 1196.74 48.3651C1197.09 48.6378 1197.52 48.7741 1198.02 48.7741ZM1209.06 39.397V37.4091H1219.51V39.397H1215.46V50.5H1213.11V39.397H1209.06ZM1221.42 50.5V40.6818H1223.73V50.5H1221.42ZM1222.58 39.2884C1222.22 39.2884 1221.9 39.1669 1221.64 38.924C1221.37 38.6768 1221.24 38.3807 1221.24 38.0355C1221.24 37.6861 1221.37 37.3899 1221.64 37.147C1221.9 36.8999 1222.22 36.7763 1222.58 36.7763C1222.95 36.7763 1223.27 36.8999 1223.53 37.147C1223.79 37.3899 1223.93 37.6861 1223.93 38.0355C1223.93 38.3807 1223.79 38.6768 1223.53 38.924C1223.27 39.1669 1222.95 39.2884 1222.58 39.2884ZM1226.11 50.5V40.6818H1228.33V42.3501H1228.44C1228.64 41.7876 1228.98 41.3487 1229.46 41.0334C1229.93 40.7138 1230.49 40.554 1231.15 40.554C1231.82 40.554 1232.38 40.7159 1232.83 41.0398C1233.29 41.3594 1233.62 41.7962 1233.8 42.3501H1233.91C1234.12 41.8047 1234.49 41.37 1235.01 41.0462C1235.52 40.718 1236.14 40.554 1236.85 40.554C1237.76 40.554 1238.49 40.8395 1239.06 41.4105C1239.64 41.9815 1239.92 42.8146 1239.92 43.9098V50.5H1237.6V44.2678C1237.6 43.6584 1237.44 43.2131 1237.11 42.9318C1236.79 42.6463 1236.39 42.5036 1235.93 42.5036C1235.37 42.5036 1234.93 42.6783 1234.62 43.0277C1234.3 43.3729 1234.15 43.8224 1234.15 44.3764V50.5H1231.88V44.1719C1231.88 43.6648 1231.73 43.2599 1231.42 42.9574C1231.12 42.6548 1230.72 42.5036 1230.23 42.5036C1229.9 42.5036 1229.6 42.5888 1229.32 42.7592C1229.05 42.9254 1228.83 43.1619 1228.67 43.4687C1228.51 43.7713 1228.43 44.125 1228.43 44.5298V50.5H1226.11ZM1246.61 50.6918C1245.63 50.6918 1244.78 50.4872 1244.06 50.0781C1243.35 49.6648 1242.8 49.081 1242.42 48.3267C1242.04 47.5682 1241.85 46.6754 1241.85 45.6484C1241.85 44.6385 1242.04 43.7521 1242.42 42.9893C1242.81 42.2223 1243.35 41.6257 1244.05 41.1996C1244.74 40.7692 1245.56 40.554 1246.49 40.554C1247.1 40.554 1247.67 40.652 1248.21 40.848C1248.75 41.0398 1249.22 41.3381 1249.64 41.7429C1250.06 42.1477 1250.38 42.6634 1250.62 43.2898C1250.86 43.9119 1250.98 44.6534 1250.98 45.5142V46.2237H1242.93V44.6641H1248.76C1248.76 44.2209 1248.66 43.8267 1248.47 43.4815C1248.29 43.1321 1248.03 42.8572 1247.69 42.657C1247.36 42.4567 1246.97 42.3565 1246.53 42.3565C1246.05 42.3565 1245.64 42.4716 1245.28 42.7017C1244.92 42.9276 1244.64 43.2259 1244.44 43.5966C1244.25 43.9631 1244.15 44.3658 1244.14 44.8047V46.1662C1244.14 46.7372 1244.25 47.2273 1244.45 47.6364C1244.66 48.0412 1244.95 48.3523 1245.33 48.5696C1245.7 48.7827 1246.14 48.8892 1246.65 48.8892C1246.98 48.8892 1247.29 48.8423 1247.56 48.7486C1247.83 48.6506 1248.07 48.5078 1248.27 48.3203C1248.47 48.1328 1248.62 47.9006 1248.72 47.6236L1250.88 47.8665C1250.75 48.4375 1250.49 48.9361 1250.1 49.3622C1249.73 49.7841 1249.24 50.1122 1248.65 50.3466C1248.05 50.5767 1247.38 50.6918 1246.61 50.6918ZM1269.2 43.9545C1269.2 45.3651 1268.94 46.5732 1268.41 47.5788C1267.89 48.5803 1267.17 49.3473 1266.26 49.88C1265.36 50.4126 1264.33 50.679 1263.19 50.679C1262.04 50.679 1261.01 50.4126 1260.11 49.88C1259.2 49.343 1258.49 48.5739 1257.96 47.5724C1257.43 46.5668 1257.17 45.3608 1257.17 43.9545C1257.17 42.544 1257.43 41.3381 1257.96 40.3366C1258.49 39.331 1259.2 38.5618 1260.11 38.0291C1261.01 37.4964 1262.04 37.2301 1263.19 37.2301C1264.33 37.2301 1265.36 37.4964 1266.26 38.0291C1267.17 38.5618 1267.89 39.331 1268.41 40.3366C1268.94 41.3381 1269.2 42.544 1269.2 43.9545ZM1266.82 43.9545C1266.82 42.9616 1266.66 42.1243 1266.35 41.4425C1266.04 40.7564 1265.62 40.2386 1265.07 39.8892C1264.53 39.5355 1263.9 39.3587 1263.19 39.3587C1262.48 39.3587 1261.85 39.5355 1261.3 39.8892C1260.76 40.2386 1260.33 40.7564 1260.02 41.4425C1259.71 42.1243 1259.56 42.9616 1259.56 43.9545C1259.56 44.9474 1259.71 45.7869 1260.02 46.473C1260.33 47.1548 1260.76 47.6726 1261.3 48.0263C1261.85 48.3757 1262.48 48.5504 1263.19 48.5504C1263.9 48.5504 1264.53 48.3757 1265.07 48.0263C1265.62 47.6726 1266.04 47.1548 1266.35 46.473C1266.66 45.7869 1266.82 44.9474 1266.82 43.9545ZM1276.32 40.6818V42.4716H1270.51V40.6818H1276.32ZM1271.96 50.5V39.755C1271.96 39.0945 1272.1 38.5447 1272.37 38.1058C1272.65 37.6669 1273.02 37.3388 1273.48 37.1214C1273.95 36.9041 1274.46 36.7955 1275.03 36.7955C1275.43 36.7955 1275.79 36.8274 1276.1 36.8913C1276.41 36.9553 1276.64 37.0128 1276.79 37.0639L1276.33 38.8537C1276.23 38.8239 1276.11 38.794 1275.96 38.7642C1275.81 38.7301 1275.64 38.7131 1275.46 38.7131C1275.03 38.7131 1274.72 38.8175 1274.54 39.0263C1274.37 39.2308 1274.28 39.5249 1274.28 39.9084V50.5H1271.96ZM1283.1 40.6818V42.4716H1277.3V40.6818H1283.1ZM1278.75 50.5V39.755C1278.75 39.0945 1278.88 38.5447 1279.16 38.1058C1279.43 37.6669 1279.8 37.3388 1280.27 37.1214C1280.73 36.9041 1281.25 36.7955 1281.82 36.7955C1282.22 36.7955 1282.57 36.8274 1282.88 36.8913C1283.19 36.9553 1283.42 37.0128 1283.57 37.0639L1283.11 38.8537C1283.02 38.8239 1282.89 38.794 1282.74 38.7642C1282.59 38.7301 1282.43 38.7131 1282.24 38.7131C1281.81 38.7131 1281.51 38.8175 1281.33 39.0263C1281.16 39.2308 1281.07 39.5249 1281.07 39.9084V50.5H1278.75ZM1288.89 50.6918C1287.91 50.6918 1287.06 50.4872 1286.34 50.0781C1285.63 49.6648 1285.08 49.081 1284.7 48.3267C1284.31 47.5682 1284.12 46.6754 1284.12 45.6484C1284.12 44.6385 1284.31 43.7521 1284.7 42.9893C1285.08 42.2223 1285.63 41.6257 1286.32 41.1996C1287.01 40.7692 1287.83 40.554 1288.77 40.554C1289.37 40.554 1289.94 40.652 1290.48 40.848C1291.02 41.0398 1291.5 41.3381 1291.91 41.7429C1292.33 42.1477 1292.66 42.6634 1292.9 43.2898C1293.14 43.9119 1293.26 44.6534 1293.26 45.5142V46.2237H1285.21V44.6641H1291.04C1291.03 44.2209 1290.94 43.8267 1290.75 43.4815C1290.56 43.1321 1290.3 42.8572 1289.96 42.657C1289.63 42.4567 1289.24 42.3565 1288.8 42.3565C1288.33 42.3565 1287.91 42.4716 1287.55 42.7017C1287.2 42.9276 1286.92 43.2259 1286.72 43.5966C1286.52 43.9631 1286.42 44.3658 1286.42 44.8047V46.1662C1286.42 46.7372 1286.52 47.2273 1286.73 47.6364C1286.94 48.0412 1287.23 48.3523 1287.61 48.5696C1287.98 48.7827 1288.42 48.8892 1288.92 48.8892C1289.26 48.8892 1289.56 48.8423 1289.84 48.7486C1290.11 48.6506 1290.35 48.5078 1290.55 48.3203C1290.75 48.1328 1290.9 47.9006 1291 47.6236L1293.16 47.8665C1293.02 48.4375 1292.76 48.9361 1292.38 49.3622C1292 49.7841 1291.51 50.1122 1290.92 50.3466C1290.33 50.5767 1289.65 50.6918 1288.89 50.6918ZM1295.21 50.5V40.6818H1297.46V42.3182H1297.56C1297.74 41.7514 1298.05 41.3146 1298.48 41.0078C1298.92 40.6967 1299.42 40.5412 1299.98 40.5412C1300.11 40.5412 1300.25 40.5476 1300.41 40.5604C1300.57 40.5689 1300.71 40.5838 1300.81 40.6051V42.7337C1300.71 42.6996 1300.56 42.6697 1300.35 42.6442C1300.14 42.6143 1299.93 42.5994 1299.74 42.5994C1299.32 42.5994 1298.94 42.6911 1298.6 42.8743C1298.27 43.0533 1298.01 43.3026 1297.81 43.6222C1297.62 43.9418 1297.53 44.3104 1297.53 44.728V50.5H1295.21ZM1303.94 48.7102L1303.86 49.4134C1303.8 49.9503 1303.69 50.4957 1303.54 51.0497C1303.39 51.608 1303.23 52.1214 1303.07 52.5902C1302.9 53.0589 1302.77 53.4276 1302.66 53.696H1301.1C1301.16 53.4361 1301.24 53.0824 1301.35 52.6349C1301.45 52.1875 1301.56 51.6847 1301.65 51.1264C1301.75 50.5682 1301.82 50.0014 1301.85 49.4261L1301.9 48.7102H1303.94ZM1319.47 41.5895C1319.36 41.2443 1319.21 40.9354 1319.03 40.6626C1318.84 40.3857 1318.62 40.1491 1318.36 39.9531C1318.1 39.7571 1317.81 39.6101 1317.48 39.5121C1317.15 39.4098 1316.78 39.3587 1316.39 39.3587C1315.69 39.3587 1315.06 39.5355 1314.51 39.8892C1313.96 40.2429 1313.53 40.7628 1313.21 41.4489C1312.9 42.1307 1312.75 42.9616 1312.75 43.9418C1312.75 44.9304 1312.9 45.7678 1313.21 46.4538C1313.53 47.1399 1313.96 47.6619 1314.51 48.0199C1315.07 48.3736 1315.71 48.5504 1316.44 48.5504C1317.11 48.5504 1317.68 48.4226 1318.17 48.1669C1318.66 47.9112 1319.04 47.549 1319.3 47.0803C1319.56 46.6072 1319.7 46.0533 1319.7 45.4183L1320.23 45.5014H1316.68V43.6477H1321.99V45.2202C1321.99 46.3409 1321.75 47.3104 1321.28 48.1286C1320.8 48.9467 1320.14 49.5774 1319.31 50.0206C1318.47 50.4595 1317.51 50.679 1316.43 50.679C1315.22 50.679 1314.17 50.4084 1313.25 49.8672C1312.35 49.3217 1311.64 48.5483 1311.12 47.5469C1310.62 46.5412 1310.36 45.348 1310.36 43.9673C1310.36 42.9105 1310.51 41.9666 1310.81 41.1357C1311.11 40.3047 1311.54 39.5994 1312.08 39.0199C1312.62 38.4361 1313.25 37.9929 1313.98 37.6903C1314.71 37.3835 1315.5 37.2301 1316.36 37.2301C1317.08 37.2301 1317.76 37.3366 1318.39 37.5497C1319.01 37.7585 1319.57 38.0568 1320.05 38.4446C1320.54 38.8324 1320.95 39.2926 1321.26 39.8253C1321.58 40.358 1321.78 40.946 1321.88 41.5895H1319.47ZM1328.53 50.6918C1327.54 50.6918 1326.69 50.4872 1325.98 50.0781C1325.27 49.6648 1324.72 49.081 1324.34 48.3267C1323.95 47.5682 1323.76 46.6754 1323.76 45.6484C1323.76 44.6385 1323.95 43.7521 1324.34 42.9893C1324.72 42.2223 1325.26 41.6257 1325.96 41.1996C1326.65 40.7692 1327.47 40.554 1328.41 40.554C1329.01 40.554 1329.58 40.652 1330.12 40.848C1330.66 41.0398 1331.14 41.3381 1331.55 41.7429C1331.97 42.1477 1332.3 42.6634 1332.54 43.2898C1332.78 43.9119 1332.89 44.6534 1332.89 45.5142V46.2237H1324.85V44.6641H1330.68C1330.67 44.2209 1330.58 43.8267 1330.39 43.4815C1330.2 43.1321 1329.94 42.8572 1329.6 42.657C1329.27 42.4567 1328.88 42.3565 1328.44 42.3565C1327.97 42.3565 1327.55 42.4716 1327.19 42.7017C1326.83 42.9276 1326.56 43.2259 1326.36 43.5966C1326.16 43.9631 1326.06 44.3658 1326.05 44.8047V46.1662C1326.05 46.7372 1326.16 47.2273 1326.37 47.6364C1326.58 48.0412 1326.87 48.3523 1327.24 48.5696C1327.62 48.7827 1328.06 48.8892 1328.56 48.8892C1328.9 48.8892 1329.2 48.8423 1329.47 48.7486C1329.75 48.6506 1329.98 48.5078 1330.18 48.3203C1330.38 48.1328 1330.54 47.9006 1330.64 47.6236L1332.8 47.8665C1332.66 48.4375 1332.4 48.9361 1332.02 49.3622C1331.64 49.7841 1331.15 50.1122 1330.56 50.3466C1329.97 50.5767 1329.29 50.6918 1328.53 50.6918ZM1339.75 40.6818V42.4716H1334.11V40.6818H1339.75ZM1335.5 38.3295H1337.82V47.5469C1337.82 47.858 1337.86 48.0966 1337.96 48.2628C1338.06 48.4247 1338.18 48.5355 1338.34 48.5952C1338.5 48.6548 1338.67 48.6847 1338.87 48.6847C1339.01 48.6847 1339.14 48.674 1339.26 48.6527C1339.39 48.6314 1339.48 48.6122 1339.54 48.5952L1339.93 50.4041C1339.81 50.4467 1339.63 50.4936 1339.4 50.5447C1339.18 50.5959 1338.9 50.6257 1338.57 50.6342C1337.99 50.6513 1337.47 50.5639 1337.01 50.3722C1336.54 50.1761 1336.17 49.8736 1335.9 49.4645C1335.63 49.0554 1335.5 48.544 1335.5 47.9304V38.3295ZM1346.15 50.5V40.6818H1348.47V50.5H1346.15ZM1347.32 39.2884C1346.95 39.2884 1346.64 39.1669 1346.37 38.924C1346.11 38.6768 1345.98 38.3807 1345.98 38.0355C1345.98 37.6861 1346.11 37.3899 1346.37 37.147C1346.64 36.8999 1346.95 36.7763 1347.32 36.7763C1347.69 36.7763 1348 36.8999 1348.26 37.147C1348.53 37.3899 1348.66 37.6861 1348.66 38.0355C1348.66 38.3807 1348.53 38.6768 1348.26 38.924C1348 39.1669 1347.69 39.2884 1347.32 39.2884ZM1355.75 40.6818V42.4716H1350.11V40.6818H1355.75ZM1351.5 38.3295H1353.81V47.5469C1353.81 47.858 1353.86 48.0966 1353.95 48.2628C1354.05 48.4247 1354.18 48.5355 1354.34 48.5952C1354.5 48.6548 1354.67 48.6847 1354.86 48.6847C1355.01 48.6847 1355.14 48.674 1355.26 48.6527C1355.38 48.6314 1355.48 48.6122 1355.54 48.5952L1355.93 50.4041C1355.81 50.4467 1355.63 50.4936 1355.4 50.5447C1355.17 50.5959 1354.9 50.6257 1354.57 50.6342C1353.99 50.6513 1353.47 50.5639 1353 50.3722C1352.54 50.1761 1352.17 49.8736 1351.9 49.4645C1351.63 49.0554 1351.5 48.544 1351.5 47.9304V38.3295ZM1373.01 37.4091V50.5H1370.9L1364.73 41.5831H1364.62V50.5H1362.25V37.4091H1364.38L1370.54 46.3324H1370.65V37.4091H1373.01ZM1379.78 50.6918C1378.82 50.6918 1377.99 50.4808 1377.28 50.0589C1376.58 49.6371 1376.03 49.0469 1375.65 48.2884C1375.26 47.5298 1375.07 46.6435 1375.07 45.6293C1375.07 44.6151 1375.26 43.7266 1375.65 42.9638C1376.03 42.201 1376.58 41.6087 1377.28 41.1868C1377.99 40.7649 1378.82 40.554 1379.78 40.554C1380.73 40.554 1381.57 40.7649 1382.27 41.1868C1382.97 41.6087 1383.51 42.201 1383.9 42.9638C1384.29 43.7266 1384.48 44.6151 1384.48 45.6293C1384.48 46.6435 1384.29 47.5298 1383.9 48.2884C1383.51 49.0469 1382.97 49.6371 1382.27 50.0589C1381.57 50.4808 1380.73 50.6918 1379.78 50.6918ZM1379.79 48.8381C1380.31 48.8381 1380.74 48.6953 1381.09 48.4098C1381.44 48.12 1381.7 47.7322 1381.87 47.2464C1382.05 46.7607 1382.13 46.2195 1382.13 45.6229C1382.13 45.022 1382.05 44.4787 1381.87 43.9929C1381.7 43.5028 1381.44 43.1129 1381.09 42.8232C1380.74 42.5334 1380.31 42.3885 1379.79 42.3885C1379.26 42.3885 1378.81 42.5334 1378.46 42.8232C1378.11 43.1129 1377.85 43.5028 1377.67 43.9929C1377.5 44.4787 1377.42 45.022 1377.42 45.6229C1377.42 46.2195 1377.5 46.7607 1377.67 47.2464C1377.85 47.7322 1378.11 48.12 1378.46 48.4098C1378.81 48.6953 1379.26 48.8381 1379.79 48.8381ZM1388.19 50.5L1385.41 40.6818H1387.77L1389.5 47.5852H1389.59L1391.35 40.6818H1393.69L1395.45 47.5469H1395.55L1397.25 40.6818H1399.61L1396.83 50.5H1394.42L1392.58 43.8651H1392.45L1390.61 50.5H1388.19ZM1404.06 37.4091L1403.85 46.652H1401.79L1401.58 37.4091H1404.06ZM1402.82 50.6406C1402.43 50.6406 1402.1 50.5043 1401.82 50.2315C1401.55 49.9588 1401.41 49.6264 1401.41 49.2344C1401.41 48.8509 1401.55 48.5227 1401.82 48.25C1402.1 47.9773 1402.43 47.8409 1402.82 47.8409C1403.2 47.8409 1403.53 47.9773 1403.8 48.25C1404.08 48.5227 1404.22 48.8509 1404.22 49.2344C1404.22 49.4943 1404.16 49.7308 1404.03 49.9439C1403.9 50.157 1403.73 50.3274 1403.52 50.4553C1403.31 50.5788 1403.07 50.6406 1402.82 50.6406Z" fill="white"/>
<g filter="url(#filter2_d_360_11228)">
<path d="M1466 43.9998C1466 30.1726 1477.21 18.9634 1491.04 18.9634H1603.96C1617.79 18.9634 1629 30.1726 1629 43.9998C1629 57.8271 1617.79 69.0363 1603.96 69.0363H1491.04C1477.21 69.0363 1466 57.8271 1466 43.9998Z" fill="url(#paint5_linear_360_11228)" shape-rendering="crispEdges"/>
<g filter="url(#filter3_d_360_11228)">
<path d="M1499.32 42.0795C1499.22 41.7727 1499.09 41.4981 1498.93 41.2557C1498.76 41.0095 1498.57 40.7992 1498.34 40.625C1498.11 40.4508 1497.85 40.3201 1497.55 40.233C1497.26 40.142 1496.93 40.0966 1496.59 40.0966C1495.96 40.0966 1495.4 40.2538 1494.91 40.5682C1494.43 40.8826 1494.04 41.3447 1493.76 41.9545C1493.48 42.5606 1493.35 43.2992 1493.35 44.1705C1493.35 45.0492 1493.48 45.7936 1493.76 46.4034C1494.04 47.0133 1494.42 47.4773 1494.91 47.7955C1495.41 48.1098 1495.98 48.267 1496.63 48.267C1497.22 48.267 1497.73 48.1534 1498.16 47.9261C1498.6 47.6989 1498.94 47.3769 1499.17 46.9602C1499.41 46.5398 1499.52 46.0473 1499.52 45.483L1500 45.5568H1496.84V43.9091H1501.56V45.3068C1501.56 46.303 1501.35 47.1648 1500.93 47.892C1500.5 48.6193 1499.92 49.1799 1499.18 49.5739C1498.43 49.964 1497.58 50.1591 1496.62 50.1591C1495.55 50.1591 1494.61 49.9186 1493.8 49.4375C1492.99 48.9527 1492.36 48.2652 1491.9 47.375C1491.45 46.4811 1491.23 45.4205 1491.23 44.1932C1491.23 43.2538 1491.36 42.4148 1491.63 41.6761C1491.89 40.9375 1492.27 40.3106 1492.75 39.7955C1493.23 39.2765 1493.8 38.8826 1494.44 38.6136C1495.09 38.3409 1495.8 38.2045 1496.56 38.2045C1497.2 38.2045 1497.8 38.2992 1498.36 38.4886C1498.91 38.6742 1499.41 38.9394 1499.84 39.2841C1500.28 39.6288 1500.63 40.0379 1500.91 40.5114C1501.2 40.9848 1501.38 41.5076 1501.47 42.0795H1499.32ZM1503.51 50V41.2727H1505.5V42.7273H1505.6C1505.75 42.2235 1506.03 41.8352 1506.41 41.5625C1506.8 41.286 1507.25 41.1477 1507.75 41.1477C1507.86 41.1477 1507.99 41.1534 1508.13 41.1648C1508.27 41.1723 1508.39 41.1856 1508.49 41.2045V43.0966C1508.4 43.0663 1508.26 43.0398 1508.07 43.017C1507.89 42.9905 1507.71 42.9773 1507.53 42.9773C1507.16 42.9773 1506.82 43.0587 1506.52 43.2216C1506.23 43.3807 1505.99 43.6023 1505.82 43.8864C1505.65 44.1705 1505.57 44.4981 1505.57 44.8693V50H1503.51ZM1512.21 50.1761C1511.66 50.1761 1511.16 50.0777 1510.71 49.8807C1510.28 49.6799 1509.93 49.3845 1509.67 48.9943C1509.42 48.6042 1509.29 48.1231 1509.29 47.5511C1509.29 47.0587 1509.38 46.6515 1509.56 46.3295C1509.74 46.0076 1509.99 45.75 1510.31 45.5568C1510.62 45.3636 1510.97 45.2178 1511.37 45.1193C1511.77 45.017 1512.18 44.9432 1512.6 44.8977C1513.11 44.8447 1513.53 44.7973 1513.85 44.7557C1514.16 44.7102 1514.39 44.642 1514.54 44.5511C1514.69 44.4564 1514.76 44.3106 1514.76 44.1136V44.0795C1514.76 43.6515 1514.63 43.3201 1514.38 43.0852C1514.13 42.8504 1513.76 42.733 1513.28 42.733C1512.78 42.733 1512.38 42.8428 1512.08 43.0625C1511.79 43.2822 1511.6 43.5417 1511.49 43.8409L1509.57 43.5682C1509.72 43.0379 1509.97 42.5947 1510.32 42.2386C1510.67 41.8788 1511.1 41.6098 1511.6 41.4318C1512.1 41.25 1512.66 41.1591 1513.27 41.1591C1513.69 41.1591 1514.11 41.2083 1514.53 41.3068C1514.94 41.4053 1515.32 41.5682 1515.67 41.7955C1516.01 42.0189 1516.29 42.3239 1516.5 42.7102C1516.71 43.0966 1516.82 43.5795 1516.82 44.1591V50H1514.84V48.8011H1514.77C1514.65 49.0436 1514.47 49.2708 1514.24 49.483C1514.02 49.6913 1513.74 49.8598 1513.4 49.9886C1513.06 50.1136 1512.66 50.1761 1512.21 50.1761ZM1512.74 48.6648C1513.16 48.6648 1513.51 48.5833 1513.82 48.4205C1514.12 48.2538 1514.35 48.0341 1514.52 47.7614C1514.68 47.4886 1514.77 47.1913 1514.77 46.8693V45.8409C1514.7 45.8939 1514.59 45.9432 1514.44 45.9886C1514.28 46.0341 1514.11 46.0739 1513.92 46.108C1513.74 46.142 1513.55 46.1723 1513.36 46.1989C1513.18 46.2254 1513.02 46.2481 1512.88 46.267C1512.57 46.3087 1512.3 46.3769 1512.06 46.4716C1511.81 46.5663 1511.62 46.6989 1511.48 46.8693C1511.34 47.036 1511.27 47.2519 1511.27 47.517C1511.27 47.8958 1511.41 48.1818 1511.69 48.375C1511.96 48.5682 1512.31 48.6648 1512.74 48.6648ZM1518.98 50V38.3636H1521.03V42.7159H1521.12C1521.22 42.5038 1521.37 42.2784 1521.57 42.0398C1521.76 41.7973 1522.02 41.5909 1522.35 41.4205C1522.68 41.2462 1523.1 41.1591 1523.61 41.1591C1524.29 41.1591 1524.89 41.3314 1525.44 41.6761C1525.98 42.017 1526.41 42.5227 1526.73 43.1932C1527.05 43.8598 1527.21 44.678 1527.21 45.6477C1527.21 46.6061 1527.06 47.4205 1526.74 48.0909C1526.43 48.7614 1526 49.2727 1525.46 49.625C1524.92 49.9773 1524.3 50.1534 1523.62 50.1534C1523.12 50.1534 1522.7 50.0701 1522.37 49.9034C1522.04 49.7367 1521.78 49.536 1521.58 49.3011C1521.38 49.0625 1521.23 48.8371 1521.12 48.625H1521V50H1518.98ZM1520.99 45.6364C1520.99 46.2008 1521.07 46.6951 1521.23 47.1193C1521.39 47.5436 1521.63 47.875 1521.93 48.1136C1522.24 48.3485 1522.61 48.4659 1523.04 48.4659C1523.5 48.4659 1523.88 48.3447 1524.19 48.1023C1524.49 47.8561 1524.72 47.5208 1524.88 47.0966C1525.04 46.6686 1525.12 46.1818 1525.12 45.6364C1525.12 45.0947 1525.04 44.6136 1524.88 44.1932C1524.73 43.7727 1524.5 43.4432 1524.19 43.2045C1523.88 42.9659 1523.5 42.8466 1523.04 42.8466C1522.6 42.8466 1522.23 42.9621 1521.92 43.1932C1521.62 43.4242 1521.38 43.7481 1521.23 44.1648C1521.07 44.5814 1520.99 45.072 1520.99 45.6364ZM1537.29 41.2727V42.8636H1532.27V41.2727H1537.29ZM1533.51 39.1818H1535.57V47.375C1535.57 47.6515 1535.61 47.8636 1535.69 48.0114C1535.78 48.1553 1535.89 48.2538 1536.03 48.3068C1536.17 48.3598 1536.33 48.3864 1536.5 48.3864C1536.63 48.3864 1536.75 48.3769 1536.85 48.358C1536.96 48.339 1537.05 48.322 1537.1 48.3068L1537.45 49.9148C1537.34 49.9527 1537.18 49.9943 1536.98 50.0398C1536.78 50.0852 1536.53 50.1117 1536.24 50.1193C1535.72 50.1345 1535.26 50.0568 1534.85 49.8864C1534.43 49.7121 1534.11 49.4432 1533.86 49.0795C1533.62 48.7159 1533.51 48.2614 1533.51 47.7159V39.1818ZM1541.25 44.8864V50H1539.2V38.3636H1541.21V42.7557H1541.31C1541.52 42.2633 1541.83 41.875 1542.26 41.5909C1542.69 41.303 1543.24 41.1591 1543.91 41.1591C1544.51 41.1591 1545.04 41.286 1545.49 41.5398C1545.94 41.7936 1546.29 42.1648 1546.54 42.6534C1546.79 43.142 1546.91 43.7386 1546.91 44.4432V50H1544.86V44.7614C1544.86 44.1742 1544.71 43.7178 1544.4 43.392C1544.1 43.0625 1543.68 42.8977 1543.14 42.8977C1542.78 42.8977 1542.45 42.9773 1542.16 43.1364C1541.88 43.2917 1541.66 43.517 1541.49 43.8125C1541.33 44.108 1541.25 44.4659 1541.25 44.8864ZM1552.87 50.1705C1552 50.1705 1551.24 49.9886 1550.61 49.625C1549.97 49.2576 1549.49 48.7386 1549.15 48.0682C1548.81 47.3939 1548.63 46.6004 1548.63 45.6875C1548.63 44.7898 1548.81 44.0019 1549.15 43.3239C1549.49 42.642 1549.97 42.1117 1550.59 41.733C1551.21 41.3504 1551.93 41.1591 1552.77 41.1591C1553.3 41.1591 1553.81 41.2462 1554.29 41.4205C1554.77 41.5909 1555.19 41.8561 1555.56 42.2159C1555.93 42.5758 1556.22 43.0341 1556.44 43.5909C1556.65 44.1439 1556.75 44.803 1556.75 45.5682V46.1989H1549.6V44.8125H1554.78C1554.78 44.4186 1554.69 44.0682 1554.53 43.7614C1554.36 43.4508 1554.13 43.2064 1553.83 43.0284C1553.53 42.8504 1553.19 42.7614 1552.79 42.7614C1552.37 42.7614 1552 42.8636 1551.69 43.0682C1551.37 43.2689 1551.12 43.5341 1550.94 43.8636C1550.77 44.1894 1550.68 44.5473 1550.67 44.9375V46.1477C1550.67 46.6553 1550.77 47.0909 1550.95 47.4545C1551.14 47.8144 1551.4 48.0909 1551.73 48.2841C1552.06 48.4735 1552.46 48.5682 1552.9 48.5682C1553.2 48.5682 1553.47 48.5265 1553.71 48.4432C1553.96 48.3561 1554.17 48.2292 1554.35 48.0625C1554.52 47.8958 1554.66 47.6894 1554.75 47.4432L1556.67 47.6591C1556.55 48.1667 1556.32 48.6098 1555.98 48.9886C1555.64 49.3636 1555.21 49.6553 1554.68 49.8636C1554.15 50.0682 1553.55 50.1705 1552.87 50.1705ZM1566.5 50H1562.55V38.3636H1566.58C1567.73 38.3636 1568.72 38.5966 1569.55 39.0625C1570.39 39.5246 1571.03 40.1894 1571.47 41.0568C1571.92 41.9242 1572.14 42.9621 1572.14 44.1705C1572.14 45.3826 1571.92 46.4242 1571.47 47.2955C1571.02 48.1667 1570.38 48.8352 1569.53 49.3011C1568.69 49.767 1567.68 50 1566.5 50ZM1564.66 48.1761H1566.39C1567.21 48.1761 1567.88 48.0284 1568.42 47.733C1568.96 47.4337 1569.37 46.9886 1569.64 46.3977C1569.92 45.803 1570.05 45.0606 1570.05 44.1705C1570.05 43.2803 1569.92 42.5417 1569.64 41.9545C1569.37 41.3636 1568.97 40.9223 1568.43 40.6307C1567.9 40.3352 1567.25 40.1875 1566.46 40.1875H1564.66V48.1761ZM1577.92 50.1705C1577.05 50.1705 1576.29 49.9886 1575.65 49.625C1575.02 49.2576 1574.53 48.7386 1574.19 48.0682C1573.85 47.3939 1573.68 46.6004 1573.68 45.6875C1573.68 44.7898 1573.85 44.0019 1574.19 43.3239C1574.54 42.642 1575.02 42.1117 1575.64 41.733C1576.25 41.3504 1576.98 41.1591 1577.81 41.1591C1578.35 41.1591 1578.86 41.2462 1579.34 41.4205C1579.82 41.5909 1580.24 41.8561 1580.61 42.2159C1580.98 42.5758 1581.27 43.0341 1581.48 43.5909C1581.7 44.1439 1581.8 44.803 1581.8 45.5682V46.1989H1574.65V44.8125H1579.83C1579.83 44.4186 1579.74 44.0682 1579.57 43.7614C1579.41 43.4508 1579.17 43.2064 1578.87 43.0284C1578.58 42.8504 1578.23 42.7614 1577.84 42.7614C1577.42 42.7614 1577.05 42.8636 1576.73 43.0682C1576.41 43.2689 1576.17 43.5341 1575.99 43.8636C1575.81 44.1894 1575.73 44.5473 1575.72 44.9375V46.1477C1575.72 46.6553 1575.81 47.0909 1576 47.4545C1576.19 47.8144 1576.45 48.0909 1576.78 48.2841C1577.11 48.4735 1577.5 48.5682 1577.95 48.5682C1578.25 48.5682 1578.52 48.5265 1578.76 48.4432C1579 48.3561 1579.21 48.2292 1579.39 48.0625C1579.57 47.8958 1579.7 47.6894 1579.8 47.4432L1581.72 47.6591C1581.59 48.1667 1581.36 48.6098 1581.02 48.9886C1580.69 49.3636 1580.25 49.6553 1579.73 49.8636C1579.2 50.0682 1578.6 50.1705 1577.92 50.1705ZM1586.05 50.1761C1585.5 50.1761 1585 50.0777 1584.56 49.8807C1584.12 49.6799 1583.77 49.3845 1583.51 48.9943C1583.26 48.6042 1583.13 48.1231 1583.13 47.5511C1583.13 47.0587 1583.22 46.6515 1583.4 46.3295C1583.59 46.0076 1583.83 45.75 1584.15 45.5568C1584.46 45.3636 1584.82 45.2178 1585.21 45.1193C1585.61 45.017 1586.02 44.9432 1586.44 44.8977C1586.96 44.8447 1587.37 44.7973 1587.69 44.7557C1588.01 44.7102 1588.24 44.642 1588.38 44.5511C1588.53 44.4564 1588.6 44.3106 1588.6 44.1136V44.0795C1588.6 43.6515 1588.48 43.3201 1588.22 43.0852C1587.97 42.8504 1587.6 42.733 1587.13 42.733C1586.62 42.733 1586.22 42.8428 1585.93 43.0625C1585.64 43.2822 1585.44 43.5417 1585.34 43.8409L1583.42 43.5682C1583.57 43.0379 1583.82 42.5947 1584.17 42.2386C1584.51 41.8788 1584.94 41.6098 1585.44 41.4318C1585.95 41.25 1586.51 41.1591 1587.12 41.1591C1587.54 41.1591 1587.95 41.2083 1588.37 41.3068C1588.79 41.4053 1589.17 41.5682 1589.51 41.7955C1589.86 42.0189 1590.13 42.3239 1590.34 42.7102C1590.55 43.0966 1590.66 43.5795 1590.66 44.1591V50H1588.68V48.8011H1588.62C1588.49 49.0436 1588.31 49.2708 1588.09 49.483C1587.86 49.6913 1587.58 49.8598 1587.24 49.9886C1586.9 50.1136 1586.51 50.1761 1586.05 50.1761ZM1586.59 48.6648C1587 48.6648 1587.36 48.5833 1587.66 48.4205C1587.96 48.2538 1588.2 48.0341 1588.36 47.7614C1588.53 47.4886 1588.61 47.1913 1588.61 46.8693V45.8409C1588.54 45.8939 1588.44 45.9432 1588.28 45.9886C1588.13 46.0341 1587.96 46.0739 1587.77 46.108C1587.58 46.142 1587.39 46.1723 1587.21 46.1989C1587.02 46.2254 1586.86 46.2481 1586.72 46.267C1586.42 46.3087 1586.14 46.3769 1585.9 46.4716C1585.66 46.5663 1585.47 46.6989 1585.33 46.8693C1585.19 47.036 1585.12 47.2519 1585.12 47.517C1585.12 47.8958 1585.25 48.1818 1585.53 48.375C1585.81 48.5682 1586.16 48.6648 1586.59 48.6648ZM1594.79 38.3636V50H1592.73V38.3636H1594.79ZM1603.8 43.5795L1601.92 43.7841C1601.87 43.5947 1601.78 43.4167 1601.64 43.25C1601.52 43.0833 1601.34 42.9489 1601.12 42.8466C1600.9 42.7443 1600.63 42.6932 1600.32 42.6932C1599.89 42.6932 1599.53 42.786 1599.24 42.9716C1598.95 43.1572 1598.81 43.3977 1598.81 43.6932C1598.81 43.947 1598.9 44.1534 1599.09 44.3125C1599.28 44.4716 1599.6 44.6023 1600.04 44.7045L1601.53 45.0227C1602.36 45.2008 1602.97 45.483 1603.37 45.8693C1603.78 46.2557 1603.98 46.7614 1603.99 47.3864C1603.98 47.9356 1603.82 48.4205 1603.5 48.8409C1603.19 49.2576 1602.75 49.5833 1602.19 49.8182C1601.63 50.053 1600.99 50.1705 1600.26 50.1705C1599.19 50.1705 1598.33 49.947 1597.68 49.5C1597.03 49.0492 1596.64 48.4223 1596.51 47.6193L1598.52 47.4261C1598.61 47.8201 1598.8 48.1174 1599.1 48.3182C1599.39 48.5189 1599.78 48.6193 1600.25 48.6193C1600.74 48.6193 1601.13 48.5189 1601.43 48.3182C1601.73 48.1174 1601.88 47.8693 1601.88 47.5739C1601.88 47.3239 1601.78 47.1174 1601.59 46.9545C1601.4 46.7917 1601.1 46.6667 1600.7 46.5795L1599.21 46.267C1598.38 46.0928 1597.76 45.7992 1597.36 45.3864C1596.95 44.9697 1596.75 44.4432 1596.76 43.8068C1596.75 43.2689 1596.9 42.803 1597.2 42.4091C1597.5 42.0114 1597.91 41.7045 1598.44 41.4886C1598.97 41.2689 1599.59 41.1591 1600.29 41.1591C1601.31 41.1591 1602.11 41.3769 1602.7 41.8125C1603.29 42.2481 1603.66 42.8371 1603.8 43.5795Z" fill="white"/>
</g>
</g>
<defs>
<filter id="filter0_d_360_11228" x="516.391" y="43.4816" width="77.3999" height="30.1289" filterUnits="userSpaceOnUse" color-interpolation-filters="sRGB">
<feFlood flood-opacity="0" result="BackgroundImageFix"/>
<feColorMatrix in="SourceAlpha" type="matrix" values="0 0 0 0 0 0 0 0 0 0 0 0 0 0 0 0 0 0 127 0" result="hardAlpha"/>
<feOffset dx="0.959897" dy="1.91979"/>
<feGaussianBlur stdDeviation="1.91979"/>
<feComposite in2="hardAlpha" operator="out"/>
<feColorMatrix type="matrix" values="0 0 0 0 0 0 0 0 0 0 0 0 0 0 0 0 0 0 0.2 0"/>
<feBlend mode="normal" in2="BackgroundImageFix" result="effect1_dropShadow_360_11228"/>
<feBlend mode="normal" in="SourceGraphic" in2="effect1_dropShadow_360_11228" result="shape"/>
</filter>
<filter id="filter2_d_360_11228" x="1460" y="12.9634" width="183" height="70.0728" filterUnits="userSpaceOnUse" color-interpolation-filters="sRGB">
<feFlood flood-opacity="0" result="BackgroundImageFix"/>
<feColorMatrix in="SourceAlpha" type="matrix" values="0 0 0 0 0 0 0 0 0 0 0 0 0 0 0 0 0 0 127 0" result="hardAlpha"/>
<feOffset dx="4" dy="4"/>
<feGaussianBlur stdDeviation="5"/>
<feComposite in2="hardAlpha" operator="out"/>
<feColorMatrix type="matrix" values="0 0 0 0 0.053172 0 0 0 0 0 0 0 0 0 0.183444 0 0 0 0.4 0"/>
<feBlend mode="normal" in2="BackgroundImageFix" result="effect1_dropShadow_360_11228"/>
<feBlend mode="normal" in="SourceGraphic" in2="effect1_dropShadow_360_11228" result="shape"/>
</filter>
<filter id="filter3_d_360_11228" x="1490.23" y="37.2046" width="116.758" height="15.9717" filterUnits="userSpaceOnUse" color-interpolation-filters="sRGB">
<feFlood flood-opacity="0" result="BackgroundImageFix"/>
<feColorMatrix in="SourceAlpha" type="matrix" values="0 0 0 0 0 0 0 0 0 0 0 0 0 0 0 0 0 0 127 0" result="hardAlpha"/>
<feOffset dx="1" dy="1"/>
<feGaussianBlur stdDeviation="1"/>
<feComposite in2="hardAlpha" operator="out"/>
<feColorMatrix type="matrix" values="0 0 0 0 0 0 0 0 0 0 0 0 0 0 0 0 0 0 0.25 0"/>
<feBlend mode="normal" in2="BackgroundImageFix" result="effect1_dropShadow_360_11228"/>
<feBlend mode="normal" in="SourceGraphic" in2="effect1_dropShadow_360_11228" result="shape"/>
</filter>
<linearGradient id="paint0_linear_360_11228" x1="0" y1="44" x2="1720" y2="44" gradientUnits="userSpaceOnUse">
<stop stop-color="#130340"/>
<stop offset="0.505" stop-color="#3F1787"/>
<stop offset="1" stop-color="#130340"/>
</linearGradient>
<linearGradient id="paint1_linear_360_11228" x1="72.1188" y1="49.5" x2="37.573" y2="23.8495" gradientUnits="userSpaceOnUse">
<stop stop-color="#40F19E"/>
<stop offset="1" stop-color="#15975A"/>
</linearGradient>
<radialGradient id="paint2_radial_360_11228" cx="0" cy="0" r="1" gradientUnits="userSpaceOnUse" gradientTransform="translate(552.698 41.3991) scale(53.1345 64.8339)">
<stop offset="0.0949" stop-color="#311171"/>
<stop offset="0.2385" stop-color="#4B2499"/>
<stop offset="0.7161" stop-color="#280D64"/>
<stop offset="0.7769" stop-color="#1E005D"/>
</radialGradient>
<radialGradient id="paint3_radial_360_11228" cx="0" cy="0" r="1" gradientTransform="matrix(28.2401 -28.7183 2.53149 2.48819 529.082 57.0569)" gradientUnits="userSpaceOnUse">
<stop/>
<stop offset="0.563225" stop-opacity="0"/>
</radialGradient>
<radialGradient id="paint4_radial_360_11228" cx="0" cy="0" r="1" gradientUnits="userSpaceOnUse" gradientTransform="translate(353.889 9.10577) scale(57.5407 85.6861)">
<stop offset="0.0949" stop-color="#311171"/>
<stop offset="0.2385" stop-color="#4B2499"/>
<stop offset="0.7161" stop-color="#280D64"/>
<stop offset="0.7769" stop-color="#1E005D"/>
</radialGradient>
<linearGradient id="paint5_linear_360_11228" x1="1539.52" y1="18.9634" x2="1527.98" y2="65.9747" gradientUnits="userSpaceOnUse">
<stop stop-color="#CC0FE5"/>
<stop offset="0.6875" stop-color="#A900BF"/>
</linearGradient>
<clipPath id="clip0_360_11228">
<rect width="220" height="52" fill="white" transform="translate(40 18)"/>
</clipPath>
<clipPath id="clip1_360_11228">
<rect width="3.49598" height="49.6272" fill="white" transform="translate(548.859 36.5142) rotate(43.3532)"/>
</clipPath>
<clipPath id="clip2_360_11228">
<rect width="20" height="20" fill="white" transform="translate(1115 34)"/>
</clipPath>
</defs>
</svg>
